<svg width="86" height="78" viewBox="0 0 86 78" fill="none" xmlns="http://www.w3.org/2000/svg">
<path d="M4.11051 28.934C3.9693 28.3459 3.96326 27.7335 4.09287 27.1428C4.22248 26.5521 4.48434 25.9984 4.85878 25.5235C5.23321 25.0486 5.71047 24.6647 6.25464 24.4008C6.79881 24.137 7.39573 23.9999 8.00051 24H77.8525C78.4573 23.9999 79.0542 24.137 79.5984 24.4008C80.1426 24.6647 80.6198 25.0486 80.9942 25.5235C81.3687 25.9984 81.6305 26.5521 81.7602 27.1428C81.8898 27.7335 81.8837 28.3459 81.7425 28.934L71.6625 70.934C71.4527 71.8077 70.9548 72.5853 70.2491 73.1415C69.5435 73.6977 68.671 74.0001 67.7725 74H18.0805C17.182 74.0001 16.3096 73.6977 15.6039 73.1415C14.8982 72.5853 14.4003 71.8077 14.1905 70.934L4.11051 28.934Z" stroke="white" stroke-width="8" stroke-linecap="round" stroke-linejoin="round"/>
<path d="M32.9265 24V4H16.9265V24H32.9265ZM32.9265 24L45.9265 6L70.9265 24" stroke="white" stroke-width="8" stroke-linecap="round" stroke-linejoin="round"/>
<path d="M24.9265 40H40.9265" stroke="white" stroke-width="8" stroke-linecap="round"/>
</svg>
